<?xml version="1.0"?>
<svg xmlns="http://www.w3.org/2000/svg" id="Layer_1" data-name="Layer 1" viewBox="0 0 512 512" width="512" height="512"><title>Rupees security</title><polygon points="398.85 35.22 397.31 26.43 445.5 18 464 123.76 415.81 132.19 412.15 111.27 398.85 35.22" style="fill:#00acea"/><path d="M229.93,120.84l-47.94,35.85a25.028,25.028,0,0,1-34.4-3.24l93.62-91.66a75.566,75.566,0,0,1,45.18-14.64l78.6,5.74a28.066,28.066,0,0,0,19.97-6.39l13.89-11.28,13.3,76.05-.63.11A74.232,74.232,0,0,1,337,132.05l-4.91-1.4a53.006,53.006,0,0,0-23.66-1.23l-43.95,7.68A33.169,33.169,0,0,1,229.93,120.84Z" style="fill:#f7caa5"/><path d="M282.07,391.16l47.94-35.85a25.028,25.028,0,0,1,34.4,3.24l-93.62,91.66a75.566,75.566,0,0,1-45.18,14.64l-78.6-5.74a28.066,28.066,0,0,0-19.97,6.39l-13.89,11.28-13.3-76.05.63-.11A74.232,74.232,0,0,1,175,379.95l4.91,1.4a53.006,53.006,0,0,0,23.66,1.23l43.95-7.68A33.169,33.169,0,0,1,282.07,391.16Z" style="fill:#f7caa5"/><circle cx="256" cy="256" r="84.19" style="fill:#00efd1"/><polygon points="113.15 476.78 114.69 485.57 66.5 494 48 388.24 96.19 379.81 99.85 400.73 113.15 476.78" style="fill:#00acea"/><path d="M256,348.19A92.19,92.19,0,1,0,163.81,256,92.295,92.295,0,0,0,256,348.19Zm0-168.38A76.19,76.19,0,1,1,179.81,256,76.276,76.276,0,0,1,256,179.81Z" style="fill:#083863"/><path d="M219.07,236a8,8,0,0,0,8,8h31.359a10.064,10.064,0,0,1-2.907,3.984A16.8,16.8,0,0,1,243.63,253H227.07a8.147,8.147,0,0,0-5.494,14.017l41.38,39.134a7.989,7.989,0,1,0,10.988-11.6L247.005,269.1a32.858,32.858,0,0,0,19.832-9.666A31.951,31.951,0,0,0,275.474,244h9.456a8,8,0,1,0,0-16h-9.47a22.122,22.122,0,0,0-3.661-8H284.93a8,8,0,0,0,0-16H227.07a8,8,0,0,0,0,16h16.56c6.381,0,11.942,3,14.792,8H227.07A8,8,0,0,0,219.07,236Z" style="fill:#083863"/><path d="M325.141,348.962l-41.405,30.962a41.275,41.275,0,0,0-37.593-12.9L202.19,374.7a45.236,45.236,0,0,1-20.086-1.043l-4.915-1.4a81.876,81.876,0,0,0-71.873,13.3l-1.246-7.122a8,8,0,0,0-9.258-6.5l-48.191,8.43a8,8,0,0,0-6.5,9.259l18.5,105.759a8,8,0,0,0,9.259,6.5l48.19-8.43a8,8,0,0,0,6.5-9.261l-.728-4.163,10.306-8.369a20.006,20.006,0,0,1,14.279-4.569l78.6,5.741c.178.013.356.02.535.021l.5,0a84.113,84.113,0,0,0,49.461-16.193,8.051,8.051,0,0,0,.863-.733l93.62-91.66a8,8,0,0,0,.441-10.965A32.991,32.991,0,0,0,325.141,348.962ZM73,484.741l-15.743-90,32.3-5.673L105,478.158v0l.294.908ZM265.61,444.16A68.09,68.09,0,0,1,226.066,457h-.147L147.6,451.206a35.82,35.82,0,0,0-25.6,8.121L118.686,462l-10.168-58.131a65.949,65.949,0,0,1,64.289-16.219l4.912,1.4a61.355,61.355,0,0,0,27.228,1.416l43.95-7.681a25.235,25.235,0,0,1,26.222,12.339c.087.153.172.306.256.461L212.292,406.61a8,8,0,0,0,1.368,15.882,8.1,8.1,0,0,0,1.388-.121l72.24-12.631a8,8,0,0,0,6.5-9.264,41.488,41.488,0,0,0-1.782-6.76l42.794-32c.055-.042.111-.084.166-.128a16.989,16.989,0,0,1,17.244-2.254Z" style="fill:#083863"/><path d="M453.38,16.622a8,8,0,0,0-9.259-6.5l-48.19,8.43a8,8,0,0,0-6.5,9.261l.728,4.163-10.306,8.369a20,20,0,0,1-14.279,4.569l-78.6-5.741c-.178-.013-.356-.02-.535-.021a84.194,84.194,0,0,0-49.962,16.191,8.051,8.051,0,0,0-.863.733l-93.62,91.66a8,8,0,0,0-.441,10.965,32.988,32.988,0,0,0,45.307,4.339l41.413-30.969a41.158,41.158,0,0,0,37.585,12.911l43.953-7.68a45.262,45.262,0,0,1,20.086,1.043l4.915,1.4a81.878,81.878,0,0,0,71.873-13.3l1.246,7.122a8,8,0,0,0,9.258,6.5l48.191-8.43a8,8,0,0,0,6.5-9.259ZM339.193,124.356l-4.912-1.4a61.342,61.342,0,0,0-27.228-1.416l-43.95,7.68a25.234,25.234,0,0,1-26.222-12.34q-.13-.228-.256-.461l63.083-11.029a8,8,0,1,0-2.756-15.761l-72.24,12.631a8,8,0,0,0-6.5,9.264,41.488,41.488,0,0,0,1.782,6.76l-42.794,32c-.055.042-.111.084-.166.128a17,17,0,0,1-17.244,2.291l86.6-84.862A68.09,68.09,0,0,1,285.934,55h.147l78.324,5.794A35.78,35.78,0,0,0,390,52.673L393.314,50l10.168,58.131A65.943,65.943,0,0,1,339.193,124.356Zm83.253-1.425L407,33.842v0l-.294-.908,32.36-5.673,15.776,90Z" style="fill:#083863"/></svg>
