<svg height="512pt" viewBox="0 0 512 512" width="512pt" xmlns="http://www.w3.org/2000/svg"><path d="m512 256c0 68.378906-26.628906 132.671875-74.980469 181.019531-48.347656 48.351563-112.640625 74.980469-181.019531 74.980469s-132.671875-26.628906-181.019531-74.980469c-48.351563-48.347656-74.980469-112.640625-74.980469-181.019531s26.628906-132.671875 74.980469-181.019531c48.347656-48.351563 112.640625-74.980469 181.019531-74.980469s132.671875 26.628906 181.019531 74.980469c48.351563 48.347656 74.980469 112.640625 74.980469 181.019531zm0 0" fill="#ffb64f"/><path d="m512 256c0 68.378906-26.628906 132.671875-74.980469 181.019531-48.347656 48.351563-112.640625 74.980469-181.019531 74.980469v-512c68.378906 0 132.671875 26.628906 181.019531 74.980469 48.351563 48.347656 74.980469 112.640625 74.980469 181.019531zm0 0" fill="#ff9800"/><path d="m443.328125 256c0 103.300781-84.027344 187.328125-187.328125 187.328125s-187.328125-84.027344-187.328125-187.328125 84.027344-187.328125 187.328125-187.328125 187.328125 84.027344 187.328125 187.328125zm0 0" fill="#ffd9a7"/><path d="m443.328125 256c0 103.300781-84.027344 187.328125-187.328125 187.328125v-374.65625c103.300781 0 187.328125 84.027344 187.328125 187.328125zm0 0" fill="#ffc273"/><path d="m327.890625 192h-58.539063c6.308594 8.460938 10.847657 18.300781 13.109376 28.980469h45.429687v30h-45.269531c-3.5 17.5-13.160156 32.800781-26.621094 43.539062-5.421875 4.332031-11.449219 7.910157-17.949219 10.601563l17.949219 16.289062 36.53125 33.148438-20.160156 22.210937-16.371094-14.859375-61.289062-55.621094v-25.558593h15c19.339843 0 35.820312-12.449219 41.867187-29.75h-67.46875v-30h67.210937c-6.269531-16.902344-22.558593-28.980469-41.609374-28.980469h-25.601563v-30h143.78125zm0 0" fill="#ff8a00"/><g fill="#e67400"><path d="m256 321.410156 36.53125 33.148438-20.160156 22.210937-16.371094-14.859375zm0 0"/><path d="m327.890625 192h-58.539063c6.308594 8.460938 10.847657 18.300781 13.109376 28.980469h45.429687v30h-45.269531c-3.5 17.5-13.160156 32.800781-26.621094 43.539062v-132.519531h71.890625zm0 0"/></g></svg>