<svg height="512" viewBox="0 0 64 64" width="512" xmlns="http://www.w3.org/2000/svg"><g id="Fill_Outline" data-name="Fill Outline"><path d="m17 29.67v-2.34a2.33 2.33 0 0 0 -2.33-2.33h-2.34a9.33 9.33 0 0 0 -9.33 9.33v9.34a9.33 9.33 0 0 0 9.33 9.33h2.34a2.33 2.33 0 0 0 2.33-2.33v-2.34a2.33 2.33 0 0 0 -2.33-2.33h-2.34a2.33 2.33 0 0 1 -2.33-2.33v-9.34a2.33 2.33 0 0 1 2.33-2.33h2.34a2.33 2.33 0 0 0 2.33-2.33z" fill="#f9e109"/><path d="m29 27h32v22h-32z" fill="#57b7eb"/><path d="m35 28v-1h-6v22h32v-5h-10a16 16 0 0 1 -16-16z" fill="#4891d3"/><path d="m29 49h32v12h-32z" fill="#93999a"/><g fill="#d0d8da"><path d="m30 53h3a0 0 0 0 1 0 0v3a0 0 0 0 1 0 0 3 3 0 0 1 -3-3 0 0 0 0 1 0 0z"/><path d="m30 57h3a0 0 0 0 1 0 0v3a0 0 0 0 1 0 0 3 3 0 0 1 -3-3 0 0 0 0 1 0 0z"/><path d="m30 49h3a0 0 0 0 1 0 0v3a0 0 0 0 1 0 0 3 3 0 0 1 -3-3 0 0 0 0 1 0 0z"/><path d="m34 53h3a0 0 0 0 1 0 0v3a0 0 0 0 1 0 0 3 3 0 0 1 -3-3 0 0 0 0 1 0 0z"/><path d="m34 57h3a0 0 0 0 1 0 0v3a0 0 0 0 1 0 0 3 3 0 0 1 -3-3 0 0 0 0 1 0 0z"/><path d="m34 49h3a0 0 0 0 1 0 0v3a0 0 0 0 1 0 0 3 3 0 0 1 -3-3 0 0 0 0 1 0 0z"/><path d="m38 57h15a0 0 0 0 1 0 0v3a0 0 0 0 1 0 0h-12a3 3 0 0 1 -3-3 0 0 0 0 1 0 0z"/><path d="m38 53h3a0 0 0 0 1 0 0v3a0 0 0 0 1 0 0 3 3 0 0 1 -3-3 0 0 0 0 1 0 0z"/><path d="m38 49h3a0 0 0 0 1 0 0v3a0 0 0 0 1 0 0 3 3 0 0 1 -3-3 0 0 0 0 1 0 0z"/><path d="m42 53h3a0 0 0 0 1 0 0v3a0 0 0 0 1 0 0 3 3 0 0 1 -3-3 0 0 0 0 1 0 0z"/><path d="m42 49h3a0 0 0 0 1 0 0v3a0 0 0 0 1 0 0 3 3 0 0 1 -3-3 0 0 0 0 1 0 0z"/><path d="m46 53h3a0 0 0 0 1 0 0v3a0 0 0 0 1 0 0 3 3 0 0 1 -3-3 0 0 0 0 1 0 0z"/><path d="m46 49h3a0 0 0 0 1 0 0v3a0 0 0 0 1 0 0 3 3 0 0 1 -3-3 0 0 0 0 1 0 0z"/><path d="m50 53h3a0 0 0 0 1 0 0v3a0 0 0 0 1 0 0 3 3 0 0 1 -3-3 0 0 0 0 1 0 0z"/><path d="m50 49h3a0 0 0 0 1 0 0v3a0 0 0 0 1 0 0 3 3 0 0 1 -3-3 0 0 0 0 1 0 0z"/><path d="m54 53h3a0 0 0 0 1 0 0v3a0 0 0 0 1 0 0 3 3 0 0 1 -3-3 0 0 0 0 1 0 0z"/><path d="m54 57h3a0 0 0 0 1 0 0v3a0 0 0 0 1 0 0 3 3 0 0 1 -3-3 0 0 0 0 1 0 0z"/><path d="m54 49h3a0 0 0 0 1 0 0v3a0 0 0 0 1 0 0 3 3 0 0 1 -3-3 0 0 0 0 1 0 0z"/><path d="m58 53h3a0 0 0 0 1 0 0v3a0 0 0 0 1 0 0 3 3 0 0 1 -3-3 0 0 0 0 1 0 0z"/><path d="m58 57h3a0 0 0 0 1 0 0v3a0 0 0 0 1 0 0 3 3 0 0 1 -3-3 0 0 0 0 1 0 0z"/><path d="m58 49h3a0 0 0 0 1 0 0v3a0 0 0 0 1 0 0 3 3 0 0 1 -3-3 0 0 0 0 1 0 0z"/></g><path d="m42 3h-20a2 2 0 0 0 -2 2v14a2 2 0 0 0 2 2h10.69l3.31 9 3.54-9h2.46a2 2 0 0 0 2-2v-14a2 2 0 0 0 -2-2z" fill="#c4f236"/><path d="m37 10h-3v-3h-4v3h-3v4h3v3h4v-3h3z" fill="#f9e109"/><path d="m39 17a14 14 0 0 1 -14-14h-3a2 2 0 0 0 -2 2v14a2 2 0 0 0 2 2h10.69l3.31 9 3.54-9h2.46a2 2 0 0 0 2-2v-2z" fill="#a1d51c"/><path d="m34 17v-.94a14 14 0 0 1 -7-5.88v3.82h3v3z" fill="#fcbc04"/><path d="m16.67 50h-2.34a9.33 9.33 0 0 1 -9.33-9.33v-9.34a9.43 9.43 0 0 1 .71-3.57 9.31 9.31 0 0 0 -2.71 6.57v9.34a9.33 9.33 0 0 0 9.33 9.33h2.34a2.33 2.33 0 0 0 2.33-2.33v-.67z" fill="#fcbc04"/><path d="m61 26h-19.82a1 1 0 0 0 0 2h18.82v20h-30v-20h.9a1 1 0 0 0 0-2h-1.9a1 1 0 0 0 -1 1v32h-8.18a3 3 0 1 0 -5.82-1 3 3 0 0 0 .14.86 3 3 0 0 1 -2.14-2.86v-2h.33 2.34a3.34 3.34 0 0 0 3.33-3.33v-2.34a3.34 3.34 0 0 0 -3.33-3.33h-2.34a1.34 1.34 0 0 1 -1.33-1.33v-9.34a1.34 1.34 0 0 1 1.33-1.33h2.34a3.34 3.34 0 0 0 3.33-3.33v-2.34a3.34 3.34 0 0 0 -3.33-3.33h-2.34a10.35 10.35 0 0 0 -10.33 10.33v2.67a1 1 0 0 0 2 0v-2.67a8.34 8.34 0 0 1 8.33-8.33h2.34a1.34 1.34 0 0 1 1.33 1.33v2.34a1.34 1.34 0 0 1 -1.33 1.33h-2.34a3.34 3.34 0 0 0 -3.33 3.33v9.34a3.34 3.34 0 0 0 3.33 3.33h2.34a1.34 1.34 0 0 1 1.33 1.33v2.34a1.34 1.34 0 0 1 -1.33 1.33h-2.34a8.34 8.34 0 0 1 -8.33-8.33v-2.67a1 1 0 0 0 -2 0v2.67a10.33 10.33 0 0 0 8 10v2.33a5 5 0 0 0 5 5h13a1 1 0 0 0 1 1h32a1 1 0 0 0 1-1v-34a1 1 0 0 0 -1-1zm-44 31a1 1 0 1 1 -1 1 1 1 0 0 1 1-1zm37-1v-2h6v2zm-8 0v-2h2v2zm-4 0v-2h2v2zm-4 0v-2h2v2zm-8-2h2v2h-2zm4 0h2v2h-2zm16 0h2v2h-2zm10-2h-2v-2h2zm-4 0h-2v-2h2zm-4 0h-2v-2h2zm-4 0h-2v-2h2zm-4 0h-2v-2h2zm-4 0h-2v-2h2zm-4 0h-2v-2h2zm-4 0h-2v-2h2zm-2 6h2v2h-2zm4 0h2v2h-2zm4 0h14v2h-14zm16 0h2v2h-2zm6 2h-2v-2h2z" fill="#1f2d51"/><path d="m45 43a1 1 0 0 0 .94-.65l3-8a1 1 0 0 0 -1.88-.7l-2.06 5.5-2.06-5.5a1 1 0 1 0 -1.88.7l3 8a1 1 0 0 0 .94.65z" fill="#1f2d51"/><path d="m54 33h-2a1 1 0 0 0 -1 1v8a1 1 0 0 0 2 0v-3h1a1 1 0 0 1 1 1v2a1 1 0 0 0 2 0v-2a3 3 0 0 0 -.78-2 3 3 0 0 0 .78-2 3 3 0 0 0 -3-3zm-1 4v-2h1a1 1 0 0 1 0 2z" fill="#1f2d51"/><path d="m38 35a1 1 0 0 0 0-2h-4a1 1 0 0 0 0 2h1v6h-1a1 1 0 0 0 0 2h4a1 1 0 0 0 0-2h-1v-6z" fill="#1f2d51"/><path d="m18.54 44a1 1 0 0 0 .7.29 1 1 0 0 0 .76-.29 7 7 0 0 0 0-9.9 1 1 0 1 0 -1.41 1.41 5 5 0 0 1 0 7.08 1 1 0 0 0 -.05 1.41z" fill="#1f2d51"/><path d="m15.71 41.12a1 1 0 0 0 1.41 0 3 3 0 0 0 0-4.24 1 1 0 1 0 -1.41 1.41 1 1 0 0 1 0 1.42 1 1 0 0 0 0 1.41z" fill="#1f2d51"/><path d="m21.36 31.22a1 1 0 0 0 0 1.42 9 9 0 0 1 0 12.72 1 1 0 0 0 0 1.42 1 1 0 0 0 .71.29 1 1 0 0 0 .71-.29 11 11 0 0 0 0-15.56 1 1 0 0 0 -1.42 0z" fill="#1f2d51"/><path d="m30 18h4a1 1 0 0 0 1-1v-2h2a1 1 0 0 0 1-1v-4a1 1 0 0 0 -1-1h-2v-2a1 1 0 0 0 -1-1h-4a1 1 0 0 0 -1 1v2h-2a1 1 0 0 0 -1 1v4a1 1 0 0 0 1 1h2v2a1 1 0 0 0 1 1zm-2-5v-2h2a1 1 0 0 0 1-1v-2h2v2a1 1 0 0 0 1 1h2v2h-2a1 1 0 0 0 -1 1v2h-2v-2a1 1 0 0 0 -1-1z" fill="#1f2d51"/><path d="m22 22h10l3.07 8.34a1 1 0 0 0 .93.66 1 1 0 0 0 .93-.63l3.29-8.37h1.78a3 3 0 0 0 3-3v-5a1 1 0 0 0 -2 0v5a1 1 0 0 1 -1 1h-2.46a1 1 0 0 0 -.93.63l-2.61 6.56-2.4-6.53a1 1 0 0 0 -.94-.66h-10.66a1 1 0 0 1 -1-1v-14a1 1 0 0 1 1-1h20a1 1 0 0 1 1 1v5a1 1 0 0 0 2 0v-5a3 3 0 0 0 -3-3h-20a3 3 0 0 0 -3 3v14a3 3 0 0 0 3 3z" fill="#1f2d51"/></g></svg>