<?xml version="1.0" encoding="iso-8859-1"?>
<!-- Generator: Adobe Illustrator 19.0.0, SVG Export Plug-In . SVG Version: 6.00 Build 0)  -->
<svg xmlns="http://www.w3.org/2000/svg" xmlns:xlink="http://www.w3.org/1999/xlink" version="1.1" id="Layer_1" x="0px" y="0px" viewBox="0 0 487.5 487.5" style="enable-background:new 0 0 487.5 487.5;" xml:space="preserve" width="64px" height="64px">
<g>
	<g>
		<path d="M330.7,202.8c-7.2,6.4-17.7,3.6-17.7-8.9v-29.7c0-8.9-7.2-16.2-16.2-16.2h-30.1c-12.5,0-15.3-10.5-8.9-17.7    c10.5-11.9,4.9-30.3-14.2-31.1c-19.1,0.8-24.7,19.2-14.2,31.1c6.4,7.2,3.6,17.8-8.9,17.8h-30c-8.9,0-16.2,7.2-16.2,16.2V194    c0,12.5-10.2,15.3-17.4,8.9c-11.9-10.5-30.1-4.9-30.9,14.2c0.8,19.1,18.9,24.7,30.8,14.2c7.2-6.4,17.5-3.6,17.5,8.9v30    c0,9.1,7.4,16.5,16.5,16.5h21h9c12.1-0.3,14.7-10.6,8.4-17.7c-10.5-11.9-4.9-30.3,14.2-31.1c19.1,0.8,24.8,19.2,14.2,31.1    c-6.3,7.1-3.6,17.4,8.4,17.7h8.2h22h0.1h0.3c8.9,0,16.2-7.2,16.2-16.2v-30.4c0-12.5,10.4-15.3,17.6-8.9    c11.9,10.5,30.2,4.9,31-14.2C360.8,197.9,342.6,192.3,330.7,202.8z" fill="#FFFFFF"/>
	</g>
</g>
<g>
	<g>
		<path d="M448.1,21.1H39.4C17.7,21.1,0,38.7,0,60.5v276.2c0,21.8,17.7,39.4,39.4,39.4h160.3V420h-31.3c-5.2,0-9.5,4.2-9.5,9.5v27.4    c0,5.2,4.2,9.5,9.5,9.5h150.7c5.2,0,9.5-4.2,9.5-9.5v-27.4c0-5.2-4.2-9.5-9.5-9.5h-31.3v-43.9h160.3c21.7,0,39.4-17.6,39.4-39.4    V60.5C487.5,38.8,469.9,21.1,448.1,21.1z M433.8,321.9H53.7V74.8h380.1V321.9z" fill="#FFFFFF"/>
	</g>
</g>
<g>
</g>
<g>
</g>
<g>
</g>
<g>
</g>
<g>
</g>
<g>
</g>
<g>
</g>
<g>
</g>
<g>
</g>
<g>
</g>
<g>
</g>
<g>
</g>
<g>
</g>
<g>
</g>
<g>
</g>
</svg>
