<?xml version="1.0" encoding="iso-8859-1"?>
<!-- Generator: Adobe Illustrator 18.1.1, SVG Export Plug-In . SVG Version: 6.00 Build 0)  -->
<svg xmlns="http://www.w3.org/2000/svg" xmlns:xlink="http://www.w3.org/1999/xlink" version="1.1" id="Capa_1" x="0px" y="0px" viewBox="0 0 35.268 35.268" style="enable-background:new 0 0 35.268 35.268;" xml:space="preserve" width="64px" height="64px">
<g>
	<circle cx="13.193" cy="6.727" r="0.973" fill="#FFFFFF"/>
	<path d="M10.27,5.755c-0.535,0-0.971,0.434-0.971,0.973c0,0.537,0.436,0.973,0.971,0.973c0.539,0,0.975-0.436,0.975-0.973   C11.244,6.188,10.809,5.755,10.27,5.755z" fill="#FFFFFF"/>
	<path d="M16.178,5.755c-0.539,0-0.977,0.434-0.977,0.973c0,0.537,0.438,0.973,0.977,0.973c0.535,0,0.973-0.436,0.973-0.973   C17.15,6.188,16.713,5.755,16.178,5.755z" fill="#FFFFFF"/>
	<rect x="18.549" y="6.258" width="13.639" height="0.975" fill="#FFFFFF"/>
	<path d="M33.324,3.151H9.949C8.871,3.151,8,4.022,8,5.096v13.965c0.545,0,1.209,0,1.949,0V8.046h23.375v16.533H27.49   c0.371,0.801,0.605,1.482,0.605,1.482c-0.141,0.164-0.289,0.311-0.436,0.467h5.664c1.072,0,1.945-0.875,1.945-1.949V5.096   C35.27,4.022,34.396,3.151,33.324,3.151z M11.408,6.559c-0.533,0-0.969-0.432-0.969-0.971c0-0.543,0.436-0.973,0.969-0.973   c0.539,0,0.975,0.43,0.975,0.973C12.383,6.128,11.947,6.559,11.408,6.559z M14.332,6.559c-0.539,0-0.975-0.432-0.975-0.971   c0-0.543,0.436-0.973,0.975-0.973c0.535,0,0.975,0.43,0.975,0.973C15.307,6.128,14.867,6.559,14.332,6.559z M17.314,6.559   c-0.537,0-0.975-0.432-0.975-0.971c0-0.543,0.438-0.973,0.975-0.973s0.973,0.43,0.973,0.973   C18.287,6.128,17.852,6.559,17.314,6.559z" fill="#FFFFFF"/>
	<path d="M26.352,25.717c-0.326-0.701-0.758-1.49-1.244-2.008c0,0-0.5-0.445-0.752-0.498c-0.25-0.057-0.25-0.057-0.379-0.031   c-0.66,0.119-1.508,1.502-2.908,2.537h-7.064c-0.443-0.398-0.84-0.842-1.156-1.348h3.906c0,0,1.117,0.074,1.117-0.818   c0-0.895,0-2.236,0-2.236s0.07-1.117-1.117-1.117c-0.385,0-2.533,0-4.848,0h-0.109H11.01c-0.758,0-1.504,0-2.199,0   c-0.74,0-1.404,0-1.949,0c-0.814,0-1.354,0-1.354,0v9.535c0,0,7.598,2.381,10.277,2.381c0,0,6.277,0.266,10.734-4.447   c0.146-0.156,0.295-0.299,0.438-0.469C26.957,27.198,26.725,26.518,26.352,25.717z" fill="#FFFFFF"/>
	<rect x="0" y="19.008" width="3.871" height="13.105" fill="#FFFFFF"/>
	<g>
	</g>
	<g>
	</g>
	<g>
	</g>
	<g>
	</g>
	<g>
	</g>
	<g>
	</g>
	<g>
	</g>
	<g>
	</g>
	<g>
	</g>
	<g>
	</g>
	<g>
	</g>
	<g>
	</g>
	<g>
	</g>
	<g>
	</g>
	<g>
	</g>
</g>
<g>
</g>
<g>
</g>
<g>
</g>
<g>
</g>
<g>
</g>
<g>
</g>
<g>
</g>
<g>
</g>
<g>
</g>
<g>
</g>
<g>
</g>
<g>
</g>
<g>
</g>
<g>
</g>
<g>
</g>
</svg>
